<svg width="673" height="942" viewBox="0 0 673 942" fill="none" xmlns="http://www.w3.org/2000/svg">
<g clip-path="url(#clip0_105_2967)">
<path d="M183.577 347.591L11.0245 475.486C7.53824 478.081 4.72016 481.469 2.80371 485.37C0.887268 489.271 -0.0724084 493.573 0.00425771 497.919C0.0809238 502.265 1.19169 506.53 3.24453 510.361C5.29737 514.192 8.2332 517.479 11.8088 519.949L617.05 936.587C620.34 938.871 624.05 940.48 627.965 941.322C631.88 942.164 635.923 942.222 639.861 941.493C643.799 940.763 647.553 939.261 650.907 937.072C654.261 934.883 657.149 932.052 659.404 928.741C662.772 923.692 664.673 917.807 664.894 911.741L672.999 223.097C673.029 218.754 672.054 214.463 670.148 210.561C668.243 206.658 665.46 203.25 662.018 200.604L603.455 155.357C600.556 153.1 597.241 151.438 593.699 150.466C590.157 149.495 586.458 149.232 582.815 149.694C579.171 150.155 575.654 151.332 572.467 153.157C569.279 154.982 566.482 157.418 564.238 160.326C560.305 165.199 558.263 171.329 558.486 177.588L560.839 762.399L227.761 524.395C224.833 522.307 222.348 519.661 220.447 516.608C218.545 513.555 217.267 510.157 216.683 506.608C216.1 503.059 216.224 499.43 217.049 495.929C217.873 492.428 219.381 489.125 221.486 486.21C222.934 484.279 224.601 482.524 226.454 480.979L276.128 440.439C281.725 435.849 285.28 429.229 286.014 422.025C286.749 414.821 284.605 407.62 280.049 401.993C279.515 401.232 278.902 400.531 278.219 399.9L229.33 350.992C223.384 345.02 215.488 341.39 207.086 340.766C198.685 340.141 190.339 342.564 183.577 347.591Z" fill="#3718AE"/>
<path d="M499.922 109.587L249.198 298.16C244.529 301.671 241.441 306.889 240.608 312.673C239.775 318.456 241.265 324.335 244.753 329.022C245.109 329.607 245.55 330.135 246.061 330.591L306.715 398.331C309.981 401.975 314.536 404.204 319.417 404.545C324.297 404.887 329.118 403.315 332.86 400.162L390.116 351.253C392.192 349.482 394.597 348.139 397.193 347.299C399.789 346.459 402.525 346.139 405.244 346.358C407.964 346.576 410.614 347.329 413.042 348.573C415.471 349.817 417.63 351.527 419.397 353.607C422.785 357.513 424.561 362.562 424.365 367.73L419.659 503.21C419.461 508.577 417.153 513.649 413.236 517.323C409.319 520.996 404.11 522.974 398.743 522.825C394.108 522.687 389.668 520.928 386.194 517.856L358.481 493.271C356.422 491.449 354.024 490.051 351.424 489.156C348.825 488.262 346.074 487.889 343.33 488.059C340.586 488.229 337.903 488.939 335.433 490.147C332.964 491.356 330.757 493.039 328.938 495.102L328.677 495.363L315.082 511.579C311.536 515.856 309.822 521.36 310.311 526.894C310.801 532.429 313.455 537.546 317.696 541.133C317.957 541.395 318.48 541.656 318.742 541.918L492.34 668.505C494.708 670.294 497.405 671.599 500.277 672.344C503.15 673.089 506.141 673.26 509.079 672.847C512.018 672.434 514.846 671.445 517.402 669.937C519.958 668.429 522.192 666.432 523.975 664.059C526.871 660.117 528.429 655.351 528.419 650.458V233.297C528.43 230.512 527.889 227.752 526.828 225.177C525.768 222.602 524.208 220.263 522.24 218.294C520.271 216.324 517.933 214.764 515.359 213.703C512.785 212.642 510.026 212.101 507.242 212.112C502.377 212.028 497.644 213.7 493.909 216.82L352.729 332.422C350.828 333.993 348.634 335.173 346.275 335.892C343.915 336.612 341.437 336.857 338.982 336.614C336.528 336.371 334.145 335.644 331.973 334.476C329.8 333.307 327.88 331.72 326.324 329.806C326.062 329.545 325.801 329.022 325.539 328.76C322.213 324.042 320.845 318.217 321.722 312.51C322.6 306.804 325.655 301.66 330.245 298.16L528.942 149.08C532.887 146.086 535.653 141.797 536.752 136.966C537.852 132.136 537.216 127.072 534.955 122.664L532.079 116.91C529.567 111.862 525.162 108.011 519.824 106.198C514.485 104.386 508.647 104.758 503.582 107.233C502.013 108.279 500.968 108.802 499.922 109.587Z" fill="#3718AE"/>
<path d="M579.403 51.7856L643.718 3.66168C647.601 0.748328 652.482 -0.502605 657.287 0.18408C662.092 0.870764 666.427 3.43881 669.34 7.32328C671.706 10.4976 672.989 14.3486 673 18.3081V117.171C673 122.027 671.072 126.684 667.64 130.117C664.208 133.551 659.553 135.48 654.699 135.48C650.619 135.462 646.662 134.081 643.457 131.556L579.142 81.8631C575.172 78.7643 572.587 74.2215 571.951 69.2246C571.314 64.2277 572.677 59.1816 575.743 55.1857C576.897 53.983 578.119 52.8478 579.403 51.7856Z" fill="#3718AE"/>
</g>
<defs>
<clipPath id="clip0_105_2967">
<rect width="673" height="942" fill="white"/>
</clipPath>
</defs>
</svg>
