<svg width="74" height="75" viewBox="0 0 74 75" fill="none" xmlns="http://www.w3.org/2000/svg">
<g filter="url(#filter0_d_69_2405)">
<path d="M36.9976 65.6201C57.4167 65.6201 67.6201 51.9099 67.6201 34.9976C67.6201 18.0852 57.4167 4.375 36.9976 4.375C16.5784 4.375 6.375 18.0852 6.375 34.9976C6.375 51.9099 16.5784 65.6201 36.9976 65.6201Z" fill="url(#paint0_radial_69_2405)"/>
<path d="M36.9976 65.6201C57.4167 65.6201 67.6201 51.9099 67.6201 34.9976C67.6201 18.0852 57.4167 4.375 36.9976 4.375C16.5784 4.375 6.375 18.0852 6.375 34.9976C6.375 51.9099 16.5784 65.6201 36.9976 65.6201Z" fill="url(#paint1_radial_69_2405)"/>
<path d="M36.9976 65.6201C57.4167 65.6201 67.6201 51.9099 67.6201 34.9976C67.6201 18.0852 57.4167 4.375 36.9976 4.375C16.5784 4.375 6.375 18.0852 6.375 34.9976C6.375 51.9099 16.5784 65.6201 36.9976 65.6201Z" fill="url(#paint2_radial_69_2405)"/>
<path d="M36.9976 65.6201C57.4167 65.6201 67.6201 51.9099 67.6201 34.9976C67.6201 18.0852 57.4167 4.375 36.9976 4.375C16.5784 4.375 6.375 18.0852 6.375 34.9976C6.375 51.9099 16.5784 65.6201 36.9976 65.6201Z" fill="url(#paint3_radial_69_2405)" fill-opacity="0.6"/>
<path d="M36.9976 65.6201C57.4167 65.6201 67.6201 51.9099 67.6201 34.9976C67.6201 18.0852 57.4167 4.375 36.9976 4.375C16.5784 4.375 6.375 18.0852 6.375 34.9976C6.375 51.9099 16.5784 65.6201 36.9976 65.6201Z" fill="url(#paint4_radial_69_2405)"/>
<path d="M36.9976 65.6201C57.4167 65.6201 67.6201 51.9099 67.6201 34.9976C67.6201 18.0852 57.4167 4.375 36.9976 4.375C16.5784 4.375 6.375 18.0852 6.375 34.9976C6.375 51.9099 16.5784 65.6201 36.9976 65.6201Z" fill="url(#paint5_radial_69_2405)"/>
<path d="M36.9976 65.6201C57.4167 65.6201 67.6201 51.9099 67.6201 34.9976C67.6201 18.0852 57.4167 4.375 36.9976 4.375C16.5784 4.375 6.375 18.0852 6.375 34.9976C6.375 51.9099 16.5784 65.6201 36.9976 65.6201Z" fill="url(#paint6_radial_69_2405)"/>
<path d="M36.9976 65.6201C57.4167 65.6201 67.6201 51.9099 67.6201 34.9976C67.6201 18.0852 57.4167 4.375 36.9976 4.375C16.5784 4.375 6.375 18.0852 6.375 34.9976C6.375 51.9099 16.5784 65.6201 36.9976 65.6201Z" fill="url(#paint7_radial_69_2405)"/>
</g>
<g filter="url(#filter1_f_69_2405)">
<path d="M22.6663 42.2789C21.5857 42.8192 20.2717 42.3812 19.7314 41.3006C19.1911 40.2201 19.6291 38.9061 20.7097 38.3658L25.5364 35.9524H32.6255C32.6236 36.779 32.1559 37.5341 31.4163 37.9039L22.6663 42.2789Z" fill="url(#paint8_radial_69_2405)" fill-opacity="0.6" style="mix-blend-mode:multiply"/>
<path d="M22.6663 29.626C21.5857 29.0857 20.2717 29.5237 19.7314 30.6042C19.1911 31.6848 19.6291 32.9988 20.7097 33.5391L25.5364 35.9524H32.6255C32.6236 35.1259 32.1559 34.3707 31.4163 34.001L22.6663 29.626Z" fill="url(#paint9_radial_69_2405)" fill-opacity="0.6" style="mix-blend-mode:multiply"/>
</g>
<path d="M22.6663 41.3218C21.5857 41.8621 20.2717 41.4241 19.7314 40.3435C19.1911 39.2629 19.6291 37.949 20.7097 37.4087L25.5364 34.9953H32.6255C32.6236 35.8219 32.1559 36.577 31.4163 36.9468L22.6663 41.3218Z" fill="url(#paint10_linear_69_2405)"/>
<path d="M22.6663 28.6689C21.5857 28.1286 20.2717 28.5666 19.7314 29.6472C19.1911 30.7278 19.6291 32.0418 20.7097 32.582L25.5364 34.9954H32.6255C32.6236 34.1688 32.1559 33.4137 31.4163 33.0439L22.6663 28.6689Z" fill="url(#paint11_linear_69_2405)"/>
<g filter="url(#filter2_f_69_2405)">
<path d="M50.0354 42.2789C51.116 42.8192 52.4299 42.3812 52.9702 41.3006C53.5105 40.2201 53.0725 38.9061 51.9919 38.3658L47.1652 35.9524H40.0762C40.0781 36.779 40.5458 37.5341 41.2854 37.9039L50.0354 42.2789Z" fill="url(#paint12_radial_69_2405)"/>
<path d="M50.0354 29.626C51.116 29.0857 52.4299 29.5237 52.9702 30.6042C53.5105 31.6848 53.0725 32.9988 51.9919 33.5391L47.1652 35.9524H40.0762C40.0781 35.1259 40.5458 34.3707 41.2854 34.001L50.0354 29.626Z" fill="url(#paint13_radial_69_2405)"/>
</g>
<path d="M51.3 41.3218C52.3806 41.8621 53.6946 41.4241 54.2349 40.3435C54.7752 39.2629 54.3372 37.949 53.2566 37.4087L48.4299 34.9953H41.3408C41.3427 35.8219 41.8105 36.577 42.55 36.9468L51.3 41.3218Z" fill="url(#paint14_linear_69_2405)"/>
<path d="M51.3 28.6689C52.3806 28.1286 53.6946 28.5666 54.2349 29.6472C54.7752 30.7278 54.3372 32.0418 53.2566 32.582L48.4299 34.9954H41.3408C41.3427 34.1688 41.8105 33.4137 42.55 33.0439L51.3 28.6689Z" fill="url(#paint15_linear_69_2405)"/>
<g filter="url(#filter3_f_69_2405)">
<path d="M30.1594 50.5039L35.3928 54.8832M41.3401 49.79L46.5735 54.1693" stroke="#CD6256" stroke-width="1.5" stroke-linecap="round" stroke-linejoin="round"/>
</g>
<path d="M19.1799 49.1099L24.4218 53.4963" stroke="url(#paint16_linear_69_2405)" stroke-width="2" stroke-linecap="round" stroke-linejoin="round"/>
<path d="M24.4219 53.4961L30.4775 48.4008" stroke="url(#paint17_linear_69_2405)" stroke-width="2" stroke-linecap="round" stroke-linejoin="round"/>
<path d="M30.7234 48.2373L37.0027 53.4971" stroke="url(#paint18_linear_69_2405)" stroke-width="2" stroke-linecap="round" stroke-linejoin="round"/>
<path d="M43.2793 48.2373L37 53.4971" stroke="url(#paint19_linear_69_2405)" stroke-width="2" stroke-linecap="round" stroke-linejoin="round"/>
<path d="M43.2793 48.2373L49.5586 53.4971" stroke="url(#paint20_linear_69_2405)" stroke-width="2" stroke-linecap="round" stroke-linejoin="round"/>
<path d="M54.8523 49.0586L49.5801 53.4959" stroke="url(#paint21_linear_69_2405)" stroke-width="2" stroke-linecap="round" stroke-linejoin="round"/>
<path d="M19.1799 49.1097L24.4218 53.4961L30.7121 48.2324L37.0024 53.4961L43.2927 48.2324L49.583 53.4961L54.8249 49.1097" stroke="url(#paint22_linear_69_2405)" stroke-width="2" stroke-linecap="round" stroke-linejoin="round"/>
<g filter="url(#filter4_f_69_2405)">
<path d="M19.1799 49.1097L24.4218 53.4961L30.7121 48.2324L37.0024 53.4961L43.2927 48.2324L49.583 53.4961L54.8249 49.1097" stroke="#694C5E" stroke-width="0.5" stroke-linecap="round" stroke-linejoin="round"/>
</g>
<defs>
<filter id="filter0_d_69_2405" x="-3.75" y="-2.875" width="81.5" height="81.5" filterUnits="userSpaceOnUse" color-interpolation-filters="sRGB">
<feFlood flood-opacity="0" result="BackgroundImageFix"/>
<feColorMatrix in="SourceAlpha" type="matrix" values="0 0 0 0 0 0 0 0 0 0 0 0 0 0 0 0 0 0 127 0" result="hardAlpha"/>
<feOffset dy="2.875"/>
<feGaussianBlur stdDeviation="2.875"/>
<feComposite in2="hardAlpha" operator="out"/>
<feColorMatrix type="matrix" values="0 0 0 0 0 0 0 0 0 0 0 0 0 0 0 0 0 0 0.25 0"/>
<feBlend mode="normal" in2="BackgroundImageFix" result="effect1_dropShadow_69_2405"/>
<feBlend mode="normal" in="SourceGraphic" in2="effect1_dropShadow_69_2405" result="shape"/>
</filter>
<filter id="filter1_f_69_2405" x="19" y="28.8945" width="14.1255" height="14.1157" filterUnits="userSpaceOnUse" color-interpolation-filters="sRGB">
<feFlood flood-opacity="0" result="BackgroundImageFix"/>
<feBlend mode="normal" in="SourceGraphic" in2="BackgroundImageFix" result="shape"/>
<feGaussianBlur stdDeviation="0.25" result="effect1_foregroundBlur_69_2405"/>
</filter>
<filter id="filter2_f_69_2405" x="39.5762" y="28.8945" width="14.1255" height="14.1157" filterUnits="userSpaceOnUse" color-interpolation-filters="sRGB">
<feFlood flood-opacity="0" result="BackgroundImageFix"/>
<feBlend mode="normal" in="SourceGraphic" in2="BackgroundImageFix" result="shape"/>
<feGaussianBlur stdDeviation="0.25" result="effect1_foregroundBlur_69_2405"/>
</filter>
<filter id="filter3_f_69_2405" x="27.9094" y="47.54" width="20.9141" height="9.59326" filterUnits="userSpaceOnUse" color-interpolation-filters="sRGB">
<feFlood flood-opacity="0" result="BackgroundImageFix"/>
<feBlend mode="normal" in="SourceGraphic" in2="BackgroundImageFix" result="shape"/>
<feGaussianBlur stdDeviation="0.75" result="effect1_foregroundBlur_69_2405"/>
</filter>
<filter id="filter4_f_69_2405" x="18.1799" y="47.2324" width="37.645" height="7.26367" filterUnits="userSpaceOnUse" color-interpolation-filters="sRGB">
<feFlood flood-opacity="0" result="BackgroundImageFix"/>
<feBlend mode="normal" in="SourceGraphic" in2="BackgroundImageFix" result="shape"/>
<feGaussianBlur stdDeviation="0.375" result="effect1_foregroundBlur_69_2405"/>
</filter>
<radialGradient id="paint0_radial_69_2405" cx="0" cy="0" r="1" gradientUnits="userSpaceOnUse" gradientTransform="translate(57.7812 19.6875) rotate(132.839) scale(82.0385)">
<stop stop-color="#FFF478"/>
<stop offset="0.474827" stop-color="#FFB02E"/>
<stop offset="1" stop-color="#F70A8D"/>
</radialGradient>
<radialGradient id="paint1_radial_69_2405" cx="0" cy="0" r="1" gradientUnits="userSpaceOnUse" gradientTransform="translate(57.7812 19.6875) rotate(131.878) scale(85.2002)">
<stop stop-color="#FFF478"/>
<stop offset="0.474827" stop-color="#FFB02E"/>
<stop offset="1" stop-color="#F70A8D"/>
</radialGradient>
<radialGradient id="paint2_radial_69_2405" cx="0" cy="0" r="1" gradientUnits="userSpaceOnUse" gradientTransform="translate(37 27.3437) rotate(101.31) scale(39.0394 50.002)">
<stop offset="0.787821" stop-color="#F59639" stop-opacity="0"/>
<stop offset="0.972509" stop-color="#FF7DCE"/>
</radialGradient>
<radialGradient id="paint3_radial_69_2405" cx="0" cy="0" r="1" gradientUnits="userSpaceOnUse" gradientTransform="translate(41.375 30.625) rotate(135) scale(89.7142)">
<stop offset="0.314853" stop-opacity="0"/>
<stop offset="1"/>
</radialGradient>
<radialGradient id="paint4_radial_69_2405" cx="0" cy="0" r="1" gradientUnits="userSpaceOnUse" gradientTransform="translate(37 37.1875) rotate(77.692) scale(61.5714)">
<stop offset="0.507903" stop-color="#7D6133" stop-opacity="0"/>
<stop offset="1" stop-color="#715B32"/>
</radialGradient>
<radialGradient id="paint5_radial_69_2405" cx="0" cy="0" r="1" gradientUnits="userSpaceOnUse" gradientTransform="translate(38.0937 36.0937) rotate(55.7131) scale(29.1233 21.1101)">
<stop stop-color="#FFB849"/>
<stop offset="1" stop-color="#FFB847" stop-opacity="0"/>
</radialGradient>
<radialGradient id="paint6_radial_69_2405" cx="0" cy="0" r="1" gradientUnits="userSpaceOnUse" gradientTransform="translate(46.8437 39.375) rotate(9.86581) scale(25.5338)">
<stop stop-color="#FFA64B"/>
<stop offset="0.900412" stop-color="#FFAE46" stop-opacity="0"/>
</radialGradient>
<radialGradient id="paint7_radial_69_2405" cx="0" cy="0" r="1" gradientUnits="userSpaceOnUse" gradientTransform="translate(40.2812 32.8125) rotate(43.9708) scale(129.178)">
<stop offset="0.185425" stop-opacity="0"/>
<stop offset="1" stop-opacity="0.4"/>
</radialGradient>
<radialGradient id="paint8_radial_69_2405" cx="0" cy="0" r="1" gradientUnits="userSpaceOnUse" gradientTransform="translate(23.3965 29.3945) rotate(110.225) scale(16.6101 21.7094)">
<stop stop-color="#9F5E0F"/>
<stop offset="0.889024" stop-color="#9F5E0F" stop-opacity="0"/>
</radialGradient>
<radialGradient id="paint9_radial_69_2405" cx="0" cy="0" r="1" gradientUnits="userSpaceOnUse" gradientTransform="translate(23.3965 29.3945) rotate(110.225) scale(16.6101 21.7094)">
<stop stop-color="#9F5E0F"/>
<stop offset="0.889024" stop-color="#9F5E0F" stop-opacity="0"/>
</radialGradient>
<linearGradient id="paint10_linear_69_2405" x1="25.1401" y1="43.1643" x2="19.5" y2="31.4748" gradientUnits="userSpaceOnUse">
<stop offset="0.24955" stop-color="#482641"/>
<stop offset="0.406361" stop-color="#503A4A"/>
<stop offset="0.511203" stop-color="#482641"/>
</linearGradient>
<linearGradient id="paint11_linear_69_2405" x1="21.3804" y1="35.303" x2="26.6099" y2="25.0491" gradientUnits="userSpaceOnUse">
<stop offset="0.24955" stop-color="#482641"/>
<stop offset="0.406361" stop-color="#503A4A"/>
<stop offset="0.511203" stop-color="#482641"/>
</linearGradient>
<radialGradient id="paint12_radial_69_2405" cx="0" cy="0" r="1" gradientUnits="userSpaceOnUse" gradientTransform="translate(60.6865 44.707) rotate(-135.995) scale(29.2244 38.1963)">
<stop stop-color="#E9830A"/>
<stop offset="0.801655" stop-color="#F08B13" stop-opacity="0"/>
</radialGradient>
<radialGradient id="paint13_radial_69_2405" cx="0" cy="0" r="1" gradientUnits="userSpaceOnUse" gradientTransform="translate(60.6865 44.707) rotate(-135.995) scale(29.2244 38.1963)">
<stop stop-color="#E9830A"/>
<stop offset="0.801655" stop-color="#F08B13" stop-opacity="0"/>
</radialGradient>
<linearGradient id="paint14_linear_69_2405" x1="48.8262" y1="43.1643" x2="54.4663" y2="31.4748" gradientUnits="userSpaceOnUse">
<stop offset="0.24955" stop-color="#482641"/>
<stop offset="0.406361" stop-color="#503A4A"/>
<stop offset="0.511203" stop-color="#482641"/>
</linearGradient>
<linearGradient id="paint15_linear_69_2405" x1="52.5859" y1="35.303" x2="47.3564" y2="25.0491" gradientUnits="userSpaceOnUse">
<stop offset="0.24955" stop-color="#482641"/>
<stop offset="0.406361" stop-color="#503A4A"/>
<stop offset="0.511203" stop-color="#482641"/>
</linearGradient>
<linearGradient id="paint16_linear_69_2405" x1="18.2572" y1="52.102" x2="26.5958" y2="42.1372" gradientUnits="userSpaceOnUse">
<stop stop-color="#482641"/>
<stop offset="0.322917" stop-color="#57434E"/>
<stop offset="0.4375" stop-color="#483637"/>
</linearGradient>
<linearGradient id="paint17_linear_69_2405" x1="27.6927" y1="54.0209" x2="21.2936" y2="46.2131" gradientUnits="userSpaceOnUse">
<stop offset="0.0197505" stop-color="#482641"/>
<stop offset="0.322917" stop-color="#57434E"/>
<stop offset="0.46422" stop-color="#483637"/>
</linearGradient>
<linearGradient id="paint18_linear_69_2405" x1="30.2865" y1="51.1668" x2="36.8681" y2="43.4634" gradientUnits="userSpaceOnUse">
<stop offset="0.0197505" stop-color="#482641"/>
<stop offset="0.322917" stop-color="#57434E"/>
<stop offset="0.46422" stop-color="#483637"/>
</linearGradient>
<linearGradient id="paint19_linear_69_2405" x1="43.7162" y1="51.1668" x2="37.1346" y2="43.4634" gradientUnits="userSpaceOnUse">
<stop offset="0.0197505" stop-color="#482641"/>
<stop offset="0.322917" stop-color="#57434E"/>
<stop offset="0.46422" stop-color="#483637"/>
</linearGradient>
<linearGradient id="paint20_linear_69_2405" x1="42.8424" y1="51.1668" x2="49.424" y2="43.4634" gradientUnits="userSpaceOnUse">
<stop offset="0.0197505" stop-color="#482641"/>
<stop offset="0.322917" stop-color="#57434E"/>
<stop offset="0.46422" stop-color="#483637"/>
</linearGradient>
<linearGradient id="paint21_linear_69_2405" x1="56.2963" y1="51.1656" x2="49.7147" y2="43.4622" gradientUnits="userSpaceOnUse">
<stop offset="0.0197505" stop-color="#482641"/>
<stop offset="0.322917" stop-color="#57434E"/>
<stop offset="0.46422" stop-color="#483637"/>
</linearGradient>
<linearGradient id="paint22_linear_69_2405" x1="37.0024" y1="55.9126" x2="37.0024" y2="52.5131" gradientUnits="userSpaceOnUse">
<stop stop-color="#53265E"/>
<stop offset="1" stop-color="#53265E" stop-opacity="0"/>
</linearGradient>
</defs>
</svg>
