<svg width="333" height="367" viewBox="0 0 333 367" fill="none" xmlns="http://www.w3.org/2000/svg">
<path d="M90.5994 91.8482L5.44083 151.031C3.72029 152.232 2.3295 153.8 1.3837 155.605C0.437887 157.41 -0.0357352 159.401 0.00210128 161.412C0.0399377 163.423 0.588125 165.397 1.60125 167.17C2.61437 168.943 4.06327 170.464 5.8279 171.606L304.528 364.406C306.152 365.463 307.983 366.207 309.915 366.597C311.847 366.986 313.842 367.013 315.786 366.676C317.729 366.338 319.582 365.643 321.237 364.63C322.893 363.617 324.318 362.307 325.431 360.775C327.093 358.439 328.031 355.715 328.14 352.908L332.14 34.2384C332.155 32.2287 331.674 30.2431 330.733 28.4372C329.793 26.6314 328.42 25.0544 326.721 23.8299L297.818 2.89187C296.388 1.84755 294.752 1.07845 293.004 0.628715C291.256 0.178976 289.43 0.0574457 287.632 0.271099C285.834 0.484753 284.098 1.02938 282.525 1.87374C280.952 2.7181 279.572 3.84556 278.464 5.19142C276.523 7.44639 275.515 10.2829 275.626 13.1793L276.787 283.8L112.405 173.664C110.96 172.698 109.734 171.473 108.795 170.061C107.857 168.648 107.226 167.075 106.938 165.433C106.65 163.791 106.712 162.111 107.118 160.491C107.525 158.871 108.269 157.343 109.308 155.994C110.023 155.1 110.846 154.288 111.76 153.573L136.275 134.814C139.038 132.689 140.792 129.626 141.155 126.292C141.517 122.959 140.459 119.626 138.211 117.022C137.947 116.67 137.644 116.346 137.308 116.054L113.179 93.4216C110.245 90.6583 106.348 88.9785 102.202 88.6895C98.0553 88.4006 93.9366 89.5219 90.5994 91.8482Z" fill="url(#paint0_linear_146_129)"/>
<defs>
<linearGradient id="paint0_linear_146_129" x1="-35.5968" y1="49.2406" x2="293.585" y2="406.842" gradientUnits="userSpaceOnUse">
<stop stop-color="#81CFF1"/>
<stop offset="1" stop-color="#DCD5F7"/>
</linearGradient>
</defs>
</svg>
