<svg width="333" height="388" viewBox="0 0 333 388" fill="none" xmlns="http://www.w3.org/2000/svg">
<path d="M90.5994 112.848L5.44083 172.031C3.72029 173.232 2.3295 174.8 1.3837 176.605C0.437887 178.41 -0.0357352 180.401 0.00210128 182.412C0.0399377 184.423 0.588125 186.397 1.60125 188.17C2.61437 189.943 4.06327 191.464 5.8279 192.606L304.528 385.406C306.152 386.463 307.983 387.207 309.915 387.597C311.847 387.986 313.842 388.013 315.786 387.676C317.729 387.338 319.582 386.643 321.237 385.63C322.893 384.617 324.318 383.307 325.431 381.775C327.093 379.439 328.031 376.715 328.14 373.908L332.14 55.2384C332.155 53.2287 331.674 51.2431 330.733 49.4372C329.793 47.6314 328.42 46.0544 326.721 44.8299L297.818 23.8919C296.388 22.8476 294.752 22.0785 293.004 21.6287C291.256 21.179 289.43 21.0574 287.632 21.2711C285.834 21.4848 284.098 22.0294 282.525 22.8737C280.952 23.7181 279.572 24.8456 278.464 26.1914C276.523 28.4464 275.515 31.2829 275.626 34.1793L276.787 304.8L112.405 194.664C110.96 193.698 109.734 192.473 108.795 191.061C107.857 189.648 107.226 188.075 106.938 186.433C106.65 184.791 106.712 183.111 107.118 181.491C107.525 179.871 108.269 178.343 109.308 176.994C110.023 176.1 110.846 175.288 111.76 174.573L136.275 155.814C139.038 153.689 140.792 150.626 141.155 147.292C141.517 143.959 140.459 140.626 138.211 138.022C137.947 137.67 137.644 137.346 137.308 137.054L113.179 114.422C110.245 111.658 106.348 109.978 102.202 109.69C98.0553 109.401 93.9366 110.522 90.5994 112.848Z" fill="url(#paint0_linear_149_135)"/>
<path d="M246.723 2.71075L122.985 89.9727C120.681 91.5976 119.157 94.0124 118.746 96.6887C118.335 99.3651 119.071 102.085 120.792 104.254C120.968 104.525 121.185 104.769 121.437 104.98L151.372 136.327C152.983 138.013 155.232 139.044 157.64 139.203C160.048 139.361 162.428 138.633 164.274 137.174L192.532 114.542C193.556 113.722 194.743 113.101 196.024 112.712C197.305 112.323 198.656 112.175 199.998 112.276C201.34 112.377 202.648 112.726 203.846 113.301C205.045 113.877 206.111 114.669 206.983 115.631C208.655 117.439 209.531 119.775 209.434 122.166L207.112 184.859C207.014 187.343 205.875 189.69 203.942 191.39C202.009 193.09 199.438 194.005 196.79 193.937C194.502 193.872 192.311 193.059 190.596 191.637L176.919 180.26C175.903 179.417 174.72 178.77 173.436 178.356C172.153 177.943 170.796 177.77 169.442 177.849C168.088 177.927 166.763 178.256 165.545 178.815C164.326 179.374 163.237 180.153 162.339 181.108L162.21 181.229L155.501 188.732C153.751 190.711 152.905 193.258 153.146 195.82C153.388 198.381 154.698 200.749 156.791 202.409C156.92 202.53 157.178 202.651 157.307 202.772L242.982 261.35C244.15 262.178 245.481 262.782 246.899 263.126C248.316 263.471 249.793 263.55 251.243 263.359C252.693 263.168 254.089 262.71 255.35 262.013C256.612 261.315 257.714 260.39 258.594 259.292C260.024 257.468 260.792 255.263 260.787 252.999V59.9575C260.793 58.6687 260.526 57.3918 260.002 56.2002C259.479 55.0087 258.709 53.926 257.738 53.0148C256.766 52.1035 255.612 51.3816 254.342 50.8906C253.071 50.3996 251.71 50.1493 250.336 50.1541C247.935 50.1155 245.599 50.8888 243.756 52.3327L174.081 105.827C173.142 106.555 172.059 107.101 170.895 107.433C169.731 107.766 168.507 107.88 167.296 107.767C166.085 107.655 164.909 107.319 163.837 106.778C162.765 106.237 161.817 105.503 161.049 104.617C160.92 104.496 160.791 104.254 160.662 104.133C159.02 101.95 158.345 99.2542 158.778 96.6135C159.211 93.9727 160.719 91.5923 162.984 89.9727L261.046 20.9861C262.993 19.6005 264.357 17.6159 264.9 15.3805C265.443 13.1452 265.129 10.802 264.013 8.7622L262.594 6.09956C261.354 3.76335 259.18 1.98161 256.545 1.14276C253.911 0.303921 251.03 0.475999 248.53 1.62148C247.756 2.1056 247.24 2.34766 246.723 2.71075Z" fill="url(#paint1_linear_149_135)"/>
<defs>
<linearGradient id="paint0_linear_149_135" x1="-35.5968" y1="70.2406" x2="293.585" y2="427.842" gradientUnits="userSpaceOnUse">
<stop stop-color="#81CFF1"/>
<stop offset="1" stop-color="#DCD5F7"/>
</linearGradient>
<linearGradient id="paint1_linear_149_135" x1="102.931" y1="35.7876" x2="321.706" y2="182.078" gradientUnits="userSpaceOnUse">
<stop stop-color="#81CFF1"/>
<stop offset="1" stop-color="#DCD5F7"/>
</linearGradient>
</defs>
</svg>
