<svg width="333" height="436" viewBox="0 0 333 436" fill="none" xmlns="http://www.w3.org/2000/svg">
<path d="M90.5994 160.848L5.44083 220.032C3.72029 221.232 2.3295 222.8 1.3837 224.605C0.437887 226.411 -0.0357352 228.401 0.00210128 230.412C0.0399377 232.424 0.588125 234.397 1.60125 236.17C2.61437 237.943 4.06327 239.464 5.8279 240.607L304.528 433.406C306.152 434.463 307.983 435.207 309.915 435.597C311.847 435.987 313.842 436.013 315.786 435.676C317.729 435.338 319.582 434.643 321.237 433.63C322.893 432.617 324.318 431.307 325.431 429.775C327.093 427.439 328.031 424.715 328.14 421.908L332.14 103.239C332.155 101.229 331.674 99.2433 330.733 97.4375C329.793 95.6316 328.42 94.0546 326.721 92.8301L297.818 71.8921C296.388 70.8478 294.752 70.0787 293.004 69.6289C291.256 69.1792 289.43 69.0577 287.632 69.2713C285.834 69.485 284.098 70.0296 282.525 70.874C280.952 71.7183 279.572 72.8458 278.464 74.1916C276.523 76.4466 275.515 79.2831 275.626 82.1796L276.787 352.801L112.405 242.664C110.96 241.698 109.734 240.473 108.795 239.061C107.857 237.648 107.226 236.075 106.938 234.433C106.65 232.791 106.712 231.111 107.118 229.492C107.525 227.872 108.269 226.343 109.308 224.994C110.023 224.101 110.846 223.288 111.76 222.573L136.275 203.814C139.038 201.689 140.792 198.626 141.155 195.293C141.517 191.959 140.459 188.626 138.211 186.022C137.947 185.671 137.644 185.346 137.308 185.054L113.179 162.422C110.245 159.659 106.348 157.979 102.202 157.69C98.0553 157.401 93.9366 158.522 90.5994 160.848Z" fill="url(#paint0_linear_69_2799)"/>
<path d="M246.723 50.7109L122.985 137.973C120.681 139.598 119.157 142.013 118.746 144.689C118.335 147.365 119.071 150.085 120.792 152.254C120.968 152.525 121.185 152.77 121.437 152.98L151.372 184.327C152.983 186.013 155.232 187.045 157.64 187.203C160.048 187.361 162.428 186.633 164.274 185.174L192.532 162.542C193.556 161.722 194.743 161.101 196.024 160.712C197.305 160.323 198.656 160.175 199.998 160.276C201.34 160.378 202.648 160.726 203.846 161.302C205.045 161.877 206.111 162.669 206.983 163.631C208.655 165.439 209.531 167.775 209.434 170.167L207.112 232.86C207.014 235.343 205.875 237.691 203.942 239.39C202.009 241.09 199.438 242.005 196.79 241.937C194.502 241.873 192.311 241.059 190.596 239.637L176.919 228.261C175.903 227.417 174.72 226.77 173.436 226.356C172.153 225.943 170.796 225.77 169.442 225.849C168.088 225.928 166.763 226.256 165.545 226.815C164.326 227.374 163.237 228.153 162.339 229.108L162.21 229.229L155.501 236.733C153.751 238.712 152.905 241.259 153.146 243.82C153.388 246.381 154.698 248.749 156.791 250.409C156.92 250.53 157.178 250.651 157.307 250.772L242.982 309.35C244.15 310.178 245.481 310.782 246.899 311.126C248.316 311.471 249.793 311.55 251.243 311.359C252.693 311.168 254.089 310.71 255.35 310.013C256.612 309.315 257.714 308.39 258.594 307.292C260.024 305.468 260.792 303.263 260.787 300.999V107.958C260.793 106.669 260.526 105.392 260.002 104.2C259.479 103.009 258.709 101.926 257.738 101.015C256.766 100.104 255.612 99.3817 254.342 98.8907C253.071 98.3998 251.71 98.1495 250.336 98.1543C247.935 98.1157 245.599 98.889 243.756 100.333L174.081 153.828C173.142 154.555 172.059 155.101 170.895 155.434C169.731 155.767 168.507 155.88 167.296 155.768C166.085 155.655 164.909 155.319 163.837 154.778C162.765 154.237 161.817 153.503 161.049 152.617C160.92 152.496 160.791 152.254 160.662 152.133C159.02 149.95 158.345 147.254 158.778 144.614C159.211 141.973 160.719 139.592 162.984 137.973L261.046 68.9863C262.993 67.6007 264.357 65.616 264.9 63.3807C265.443 61.1454 265.129 58.8022 264.013 56.7624L262.594 54.0997C261.354 51.7635 259.18 49.9818 256.545 49.1429C253.911 48.3041 251.03 48.4762 248.53 49.6216C247.756 50.1058 247.24 50.3478 246.723 50.7109Z" fill="url(#paint1_linear_69_2799)"/>
<path d="M285.949 23.9638L317.69 1.69444C319.606 0.346288 322.015 -0.23258 324.386 0.0851828C326.758 0.402946 328.897 1.59131 330.334 3.38885C331.502 4.85776 332.135 6.63982 332.141 8.47207V54.221C332.141 56.468 331.189 58.6229 329.495 60.2117C327.802 61.8005 325.504 62.6931 323.109 62.6931C321.095 62.6849 319.143 62.0459 317.561 60.8776L285.82 37.8821C283.861 36.4481 282.585 34.346 282.271 32.0337C281.956 29.7214 282.629 27.3863 284.142 25.5372C284.712 24.9806 285.315 24.4553 285.949 23.9638Z" fill="url(#paint2_linear_69_2799)"/>
<defs>
<linearGradient id="paint0_linear_69_2799" x1="-35.5968" y1="118.241" x2="293.585" y2="475.842" gradientUnits="userSpaceOnUse">
<stop stop-color="#81CFF1"/>
<stop offset="1" stop-color="#DCD5F7"/>
</linearGradient>
<linearGradient id="paint1_linear_69_2799" x1="102.931" y1="83.7878" x2="321.706" y2="230.078" gradientUnits="userSpaceOnUse">
<stop stop-color="#81CFF1"/>
<stop offset="1" stop-color="#DCD5F7"/>
</linearGradient>
<linearGradient id="paint2_linear_69_2799" x1="276.842" y1="8.38864" x2="333.249" y2="62.2921" gradientUnits="userSpaceOnUse">
<stop stop-color="#81CFF1"/>
<stop offset="1" stop-color="#DCD5F7"/>
</linearGradient>
</defs>
</svg>
