<svg width="74" height="75" viewBox="0 0 74 75" fill="none" xmlns="http://www.w3.org/2000/svg">
<g filter="url(#filter0_d_69_2407)">
<path d="M36.9976 65.6201C57.4167 65.6201 67.6201 51.9099 67.6201 34.9976C67.6201 18.0852 57.4167 4.375 36.9976 4.375C16.5784 4.375 6.375 18.0852 6.375 34.9976C6.375 51.9099 16.5784 65.6201 36.9976 65.6201Z" fill="url(#paint0_radial_69_2407)"/>
<path d="M36.9976 65.6201C57.4167 65.6201 67.6201 51.9099 67.6201 34.9976C67.6201 18.0852 57.4167 4.375 36.9976 4.375C16.5784 4.375 6.375 18.0852 6.375 34.9976C6.375 51.9099 16.5784 65.6201 36.9976 65.6201Z" fill="url(#paint1_radial_69_2407)"/>
<path d="M36.9976 65.6201C57.4167 65.6201 67.6201 51.9099 67.6201 34.9976C67.6201 18.0852 57.4167 4.375 36.9976 4.375C16.5784 4.375 6.375 18.0852 6.375 34.9976C6.375 51.9099 16.5784 65.6201 36.9976 65.6201Z" fill="url(#paint2_radial_69_2407)"/>
<path d="M36.9976 65.6201C57.4167 65.6201 67.6201 51.9099 67.6201 34.9976C67.6201 18.0852 57.4167 4.375 36.9976 4.375C16.5784 4.375 6.375 18.0852 6.375 34.9976C6.375 51.9099 16.5784 65.6201 36.9976 65.6201Z" fill="url(#paint3_radial_69_2407)" fill-opacity="0.6"/>
<path d="M36.9976 65.6201C57.4167 65.6201 67.6201 51.9099 67.6201 34.9976C67.6201 18.0852 57.4167 4.375 36.9976 4.375C16.5784 4.375 6.375 18.0852 6.375 34.9976C6.375 51.9099 16.5784 65.6201 36.9976 65.6201Z" fill="url(#paint4_radial_69_2407)"/>
<path d="M36.9976 65.6201C57.4167 65.6201 67.6201 51.9099 67.6201 34.9976C67.6201 18.0852 57.4167 4.375 36.9976 4.375C16.5784 4.375 6.375 18.0852 6.375 34.9976C6.375 51.9099 16.5784 65.6201 36.9976 65.6201Z" fill="url(#paint5_radial_69_2407)"/>
<path d="M36.9976 65.6201C57.4167 65.6201 67.6201 51.9099 67.6201 34.9976C67.6201 18.0852 57.4167 4.375 36.9976 4.375C16.5784 4.375 6.375 18.0852 6.375 34.9976C6.375 51.9099 16.5784 65.6201 36.9976 65.6201Z" fill="url(#paint6_radial_69_2407)"/>
<path d="M36.9976 65.6201C57.4167 65.6201 67.6201 51.9099 67.6201 34.9976C67.6201 18.0852 57.4167 4.375 36.9976 4.375C16.5784 4.375 6.375 18.0852 6.375 34.9976C6.375 51.9099 16.5784 65.6201 36.9976 65.6201Z" fill="url(#paint7_radial_69_2407)"/>
</g>
<ellipse cx="21.7248" cy="29.3571" rx="10.2228" ry="10.2228" fill="url(#paint8_radial_69_2407)"/>
<path d="M24.7919 35.4909C29.8732 35.4909 33.9924 31.3717 33.9924 26.2904C33.9924 21.2091 29.8732 17.0898 24.7919 17.0898C19.7105 17.0898 15.5913 21.2091 15.5913 26.2904C15.5913 31.3717 19.7105 35.4909 24.7919 35.4909Z" fill="white"/>
<path d="M26.0625 32.8125C29.6869 32.8125 32.625 29.8744 32.625 26.25C32.625 22.6256 29.6869 19.6875 26.0625 19.6875C22.4381 19.6875 19.5 22.6256 19.5 26.25C19.5 29.8744 22.4381 32.8125 26.0625 32.8125Z" fill="url(#paint9_linear_69_2407)"/>
<ellipse cx="44.0969" cy="30.5007" rx="9.28443" ry="9.28442" fill="url(#paint10_radial_69_2407)"/>
<path d="M49.1807 35.6587C54.3083 35.6587 58.4651 31.5019 58.4651 26.3743C58.4651 21.2466 54.3083 17.0898 49.1807 17.0898C44.053 17.0898 39.8962 21.2466 39.8962 26.3743C39.8962 31.5019 44.053 35.6587 49.1807 35.6587Z" fill="white"/>
<path d="M47.9375 32.8125C51.5619 32.8125 54.5 29.8744 54.5 26.25C54.5 22.6256 51.5619 19.6875 47.9375 19.6875C44.3131 19.6875 41.375 22.6256 41.375 26.25C41.375 29.8744 44.3131 32.8125 47.9375 32.8125Z" fill="url(#paint11_linear_69_2407)"/>
<path d="M37 46.413C27.1087 46.413 25.5869 41.0869 25.5869 41.0869C25.5869 41.0869 27.8695 45.6521 37 45.6521C46.1304 45.6521 48.4129 41.0869 48.4129 41.0869C48.4129 41.0869 46.9205 46.413 37 46.413Z" fill="url(#paint12_radial_69_2407)" stroke="url(#paint13_radial_69_2407)" stroke-width="2" stroke-linejoin="round"/>
<defs>
<filter id="filter0_d_69_2407" x="-3.75" y="-2.875" width="81.5" height="81.5" filterUnits="userSpaceOnUse" color-interpolation-filters="sRGB">
<feFlood flood-opacity="0" result="BackgroundImageFix"/>
<feColorMatrix in="SourceAlpha" type="matrix" values="0 0 0 0 0 0 0 0 0 0 0 0 0 0 0 0 0 0 127 0" result="hardAlpha"/>
<feOffset dy="2.875"/>
<feGaussianBlur stdDeviation="2.875"/>
<feComposite in2="hardAlpha" operator="out"/>
<feColorMatrix type="matrix" values="0 0 0 0 0 0 0 0 0 0 0 0 0 0 0 0 0 0 0.25 0"/>
<feBlend mode="normal" in2="BackgroundImageFix" result="effect1_dropShadow_69_2407"/>
<feBlend mode="normal" in="SourceGraphic" in2="effect1_dropShadow_69_2407" result="shape"/>
</filter>
<radialGradient id="paint0_radial_69_2407" cx="0" cy="0" r="1" gradientUnits="userSpaceOnUse" gradientTransform="translate(57.7812 19.6875) rotate(132.839) scale(82.0385)">
<stop stop-color="#FFF478"/>
<stop offset="0.474827" stop-color="#FFB02E"/>
<stop offset="1" stop-color="#F70A8D"/>
</radialGradient>
<radialGradient id="paint1_radial_69_2407" cx="0" cy="0" r="1" gradientUnits="userSpaceOnUse" gradientTransform="translate(57.7812 19.6875) rotate(131.878) scale(85.2002)">
<stop stop-color="#FFF478"/>
<stop offset="0.474827" stop-color="#FFB02E"/>
<stop offset="1" stop-color="#F70A8D"/>
</radialGradient>
<radialGradient id="paint2_radial_69_2407" cx="0" cy="0" r="1" gradientUnits="userSpaceOnUse" gradientTransform="translate(37 27.3437) rotate(101.31) scale(39.0394 50.002)">
<stop offset="0.787821" stop-color="#F59639" stop-opacity="0"/>
<stop offset="0.972509" stop-color="#FF7DCE"/>
</radialGradient>
<radialGradient id="paint3_radial_69_2407" cx="0" cy="0" r="1" gradientUnits="userSpaceOnUse" gradientTransform="translate(41.375 30.625) rotate(135) scale(89.7142)">
<stop offset="0.314853" stop-opacity="0"/>
<stop offset="1"/>
</radialGradient>
<radialGradient id="paint4_radial_69_2407" cx="0" cy="0" r="1" gradientUnits="userSpaceOnUse" gradientTransform="translate(37 37.1875) rotate(77.692) scale(61.5714)">
<stop offset="0.507903" stop-color="#7D6133" stop-opacity="0"/>
<stop offset="1" stop-color="#715B32"/>
</radialGradient>
<radialGradient id="paint5_radial_69_2407" cx="0" cy="0" r="1" gradientUnits="userSpaceOnUse" gradientTransform="translate(38.0937 36.0937) rotate(55.7131) scale(29.1233 21.1101)">
<stop stop-color="#FFB849"/>
<stop offset="1" stop-color="#FFB847" stop-opacity="0"/>
</radialGradient>
<radialGradient id="paint6_radial_69_2407" cx="0" cy="0" r="1" gradientUnits="userSpaceOnUse" gradientTransform="translate(46.8437 39.375) rotate(9.86581) scale(25.5338)">
<stop stop-color="#FFA64B"/>
<stop offset="0.900412" stop-color="#FFAE46" stop-opacity="0"/>
</radialGradient>
<radialGradient id="paint7_radial_69_2407" cx="0" cy="0" r="1" gradientUnits="userSpaceOnUse" gradientTransform="translate(40.2812 32.8125) rotate(43.9708) scale(129.178)">
<stop offset="0.185425" stop-opacity="0"/>
<stop offset="1" stop-opacity="0.4"/>
</radialGradient>
<radialGradient id="paint8_radial_69_2407" cx="0" cy="0" r="1" gradientUnits="userSpaceOnUse" gradientTransform="translate(29.6759 21.406) rotate(135) scale(19.9189 10.3094)">
<stop stop-color="#392108"/>
<stop offset="1" stop-color="#C87928" stop-opacity="0"/>
</radialGradient>
<linearGradient id="paint9_linear_69_2407" x1="38.0938" y1="17.5" x2="35.9062" y2="32.8125" gradientUnits="userSpaceOnUse">
<stop stop-color="#553B3E"/>
<stop offset="1" stop-color="#3D2432"/>
</linearGradient>
<radialGradient id="paint10_radial_69_2407" cx="0" cy="0" r="1" gradientUnits="userSpaceOnUse" gradientTransform="translate(51.3181 23.2795) rotate(135) scale(16.7774 9.47113)">
<stop stop-color="#392108"/>
<stop offset="1" stop-color="#C87928" stop-opacity="0"/>
</radialGradient>
<linearGradient id="paint11_linear_69_2407" x1="38.0938" y1="17.5" x2="35.9063" y2="32.8125" gradientUnits="userSpaceOnUse">
<stop stop-color="#553B3E"/>
<stop offset="1" stop-color="#3D2432"/>
</linearGradient>
<radialGradient id="paint12_radial_69_2407" cx="0" cy="0" r="1" gradientUnits="userSpaceOnUse" gradientTransform="translate(37 63.6277) rotate(-90) scale(24.0625 48.125)">
<stop stop-color="#F70A8D"/>
<stop offset="1" stop-color="#89029C"/>
</radialGradient>
<radialGradient id="paint13_radial_69_2407" cx="0" cy="0" r="1" gradientUnits="userSpaceOnUse" gradientTransform="translate(37.0437 39.5653) rotate(90) scale(8.36945 16.1522)">
<stop offset="0.34763" stop-color="#241A1A"/>
<stop offset="0.628228" stop-color="#57444A"/>
<stop offset="1" stop-color="#4E2553"/>
<stop offset="1" stop-color="#502A56"/>
</radialGradient>
</defs>
</svg>
