<svg width="74" height="75" viewBox="0 0 74 75" fill="none" xmlns="http://www.w3.org/2000/svg">
<g filter="url(#filter0_d_69_2408)">
<path d="M36.9976 65.6201C57.4167 65.6201 67.6201 51.9099 67.6201 34.9976C67.6201 18.0852 57.4167 4.375 36.9976 4.375C16.5784 4.375 6.375 18.0852 6.375 34.9976C6.375 51.9099 16.5784 65.6201 36.9976 65.6201Z" fill="url(#paint0_radial_69_2408)"/>
<path d="M36.9976 65.6201C57.4167 65.6201 67.6201 51.9099 67.6201 34.9976C67.6201 18.0852 57.4167 4.375 36.9976 4.375C16.5784 4.375 6.375 18.0852 6.375 34.9976C6.375 51.9099 16.5784 65.6201 36.9976 65.6201Z" fill="url(#paint1_radial_69_2408)"/>
<path d="M36.9976 65.6201C57.4167 65.6201 67.6201 51.9099 67.6201 34.9976C67.6201 18.0852 57.4167 4.375 36.9976 4.375C16.5784 4.375 6.375 18.0852 6.375 34.9976C6.375 51.9099 16.5784 65.6201 36.9976 65.6201Z" fill="url(#paint2_radial_69_2408)"/>
<path d="M36.9976 65.6201C57.4167 65.6201 67.6201 51.9099 67.6201 34.9976C67.6201 18.0852 57.4167 4.375 36.9976 4.375C16.5784 4.375 6.375 18.0852 6.375 34.9976C6.375 51.9099 16.5784 65.6201 36.9976 65.6201Z" fill="url(#paint3_radial_69_2408)" fill-opacity="0.6"/>
<path d="M36.9976 65.6201C57.4167 65.6201 67.6201 51.9099 67.6201 34.9976C67.6201 18.0852 57.4167 4.375 36.9976 4.375C16.5784 4.375 6.375 18.0852 6.375 34.9976C6.375 51.9099 16.5784 65.6201 36.9976 65.6201Z" fill="url(#paint4_radial_69_2408)"/>
<path d="M36.9976 65.6201C57.4167 65.6201 67.6201 51.9099 67.6201 34.9976C67.6201 18.0852 57.4167 4.375 36.9976 4.375C16.5784 4.375 6.375 18.0852 6.375 34.9976C6.375 51.9099 16.5784 65.6201 36.9976 65.6201Z" fill="url(#paint5_radial_69_2408)"/>
<path d="M36.9976 65.6201C57.4167 65.6201 67.6201 51.9099 67.6201 34.9976C67.6201 18.0852 57.4167 4.375 36.9976 4.375C16.5784 4.375 6.375 18.0852 6.375 34.9976C6.375 51.9099 16.5784 65.6201 36.9976 65.6201Z" fill="url(#paint6_radial_69_2408)"/>
<path d="M36.9976 65.6201C57.4167 65.6201 67.6201 51.9099 67.6201 34.9976C67.6201 18.0852 57.4167 4.375 36.9976 4.375C16.5784 4.375 6.375 18.0852 6.375 34.9976C6.375 51.9099 16.5784 65.6201 36.9976 65.6201Z" fill="url(#paint7_radial_69_2408)"/>
</g>
<g filter="url(#filter1_f_69_2408)">
<path d="M9.76196 40.6785C10.2405 42.661 11.6153 46.427 16.0052 47.5138C16.6596 47.6758 17.3028 47.7936 17.9479 47.8825C17.9793 47.8868 18.0107 47.8905 18.0423 47.8934C27.4595 48.7759 33.6851 40.8154 33.9891 32.1549C34.0143 31.4372 34.5669 30.8301 35.2851 30.8208C35.6676 30.8159 36.0642 30.8164 36.4724 30.8235C37.1876 30.836 37.7365 31.4413 37.7619 32.1562C38.0693 40.8163 44.289 48.7761 53.7082 47.8934C53.7398 47.8905 53.7712 47.8868 53.8026 47.8825C54.4477 47.7936 55.0909 47.6758 55.7453 47.5138C61.561 46.074 65.1688 42.2516 67.0138 38.1517C66.7276 36.4172 66.3201 34.7369 65.7914 33.1242C65.2392 37.9441 62.6584 38.5527 55.7453 40.2642C55.1763 40.4051 53.2319 41.7607 52.6518 41.8407C46.0893 42.4559 44.2436 38.1517 40.5238 31.279L40.5234 31.2108C40.5234 31.1792 40.5237 31.1476 40.5241 31.1161C40.765 31.1476 41.0072 31.182 41.2501 31.2194L41.8486 27.3355C42.5401 26.4443 43.4647 25.743 44.531 25.3233C44.7816 25.2151 45.3677 24.9691 47.1799 24.6312C49.0496 24.2826 54.0409 24.2866 57.0873 24.289L57.7671 24.2894C59.3756 24.2894 60.8364 24.7564 61.78 25.1835C61.0092 24.1223 60.1607 23.12 59.2346 22.1837C58.7536 22.1315 58.261 22.1019 57.7671 22.1019L57.0789 22.1015C55.561 22.1003 53.5308 22.0987 51.6427 22.1415C49.8134 22.1831 47.1035 22.2997 45.9644 22.512C44.0812 22.8631 43.3217 23.1444 42.8818 23.3324C41.6724 23.8143 40.6338 24.5572 39.8139 25.4939C39.2749 26.1096 38.5112 26.5208 37.6936 26.4846C36.3808 26.4264 35.1464 26.4331 34.0413 26.4778C33.2278 26.5108 32.4691 26.1012 31.9324 25.489C31.1131 24.5547 30.076 23.8135 28.8687 23.3324C28.4288 23.1444 27.6692 22.8631 25.786 22.512C24.647 22.2997 21.9371 22.1831 20.1078 22.1415C18.2197 22.0987 16.1895 22.1003 14.6715 22.1015L14.6434 22.1015C13.9183 22.828 13.2404 23.5946 12.6096 24.398C13.0484 24.3299 13.5095 24.2894 13.9834 24.2894L14.6632 24.289C17.7096 24.2866 22.7009 24.2826 24.5706 24.6312C26.3828 24.9691 26.9688 25.2151 27.2195 25.3233C28.2465 25.7275 29.1421 26.393 29.8245 27.2378L30.5721 31.2072C30.7504 31.1736 30.9699 31.1379 31.2262 31.1022C31.2268 31.1383 31.2271 31.1745 31.2271 31.2108L31.2267 31.279C31.6198 40.4905 24.6048 46.0423 18.0423 45.4271C17.4621 45.3472 16.8958 45.2429 16.3267 45.102C11.2987 43.8572 11.6641 40.1636 10.2405 36.6453C9.98792 37.9375 9.87647 39.3275 9.76196 40.6785Z" fill="url(#paint8_linear_69_2408)"/>
</g>
<path fill-rule="evenodd" clip-rule="evenodd" d="M29.991 21.1449C31.4017 21.707 32.58 22.6242 33.4498 23.7897C33.7058 24.1327 34.109 24.3442 34.5363 24.3204C35.9607 24.2413 37.6395 24.2224 39.447 24.3298C39.8765 24.3553 40.2824 24.143 40.5393 23.7979C41.4097 22.6285 42.5902 21.7083 44.0042 21.1449C44.444 20.9569 45.2036 20.6756 47.0868 20.3245C48.2258 20.1122 50.9357 19.9956 52.765 19.954C54.6531 19.9112 56.6833 19.9128 58.2013 19.914L58.8894 19.9144C61.4912 19.9144 64.058 20.7364 65.0759 21.3499C67.366 22.512 69.4851 24.7337 69.6371 28.5569C69.6434 28.614 69.6475 28.6717 69.6492 28.7296C69.8296 34.6105 66.1778 43.0214 56.8676 45.3263C56.2132 45.4883 55.57 45.6061 54.9249 45.695C54.8936 45.6993 54.8621 45.703 54.8306 45.7059C45.1902 46.6093 38.9014 38.2501 38.8724 29.3576C38.8712 28.9815 38.5814 28.6641 38.2056 28.6515C37.351 28.6231 36.5401 28.6247 35.7931 28.6461C35.4157 28.6569 35.1241 28.9754 35.1231 29.3529C35.0997 38.2471 28.8042 46.6093 19.1646 45.7059C19.1331 45.703 19.1016 45.6993 19.0703 45.695C18.4252 45.6061 17.782 45.4883 17.1276 45.3263C7.81737 43.0214 4.16555 34.6105 4.34594 28.7296C4.34772 28.6717 4.35179 28.614 4.3581 28.5569C4.51007 24.7337 6.62922 22.512 8.91925 21.3499C9.93714 20.7364 12.504 19.9144 15.1058 19.9144L15.7939 19.914C17.3119 19.9128 19.3421 19.9112 21.2301 19.954C23.0595 19.9956 25.7694 20.1122 26.9084 20.3245C28.7916 20.6756 29.5512 20.9569 29.991 21.1449ZM7.44558 26.6107C7.99222 25.2793 9.00687 24.1913 10.3729 23.368C11.1409 22.9051 12.9963 22.1019 15.1058 22.1019L15.7855 22.1015C18.8319 22.0991 23.8233 22.0951 25.6929 22.4437C27.5052 22.7816 28.0912 23.0276 28.3418 23.1358C29.3689 23.54 30.2644 24.2055 30.9469 25.0503L31.6944 29.0197C31.8727 28.9861 32.0922 28.9504 32.3485 28.9147C32.3491 28.9508 32.3494 28.987 32.3494 29.0233L32.3491 29.0915C32.7421 38.303 25.7271 43.8548 19.1646 43.2396C18.5845 43.1597 18.0181 43.0554 17.4491 42.9145C10.536 41.203 7.63359 35.7566 7.08143 30.9367C6.9964 30.1944 6.9671 29.467 6.98748 28.7704L6.98806 28.7508L6.99247 28.751L6.99329 28.7296C7.02373 27.9671 7.179 27.26 7.44558 26.6107ZM41.6465 28.9286C41.646 28.9601 41.6458 28.9917 41.6458 29.0233L41.6461 29.0915C41.2531 38.303 48.2681 43.8548 54.8306 43.2396C55.4107 43.1597 55.9771 43.0554 56.5461 42.9145C63.4592 41.203 66.3616 35.7566 66.9138 30.9367C66.9988 30.1944 67.0281 29.467 67.0077 28.7704L67.0071 28.7508L67.0027 28.751L67.0019 28.7296C66.9715 27.9671 66.8162 27.26 66.5496 26.6107C66.003 25.2793 64.9883 24.1913 63.6223 23.368C62.8543 22.9051 60.9989 22.1019 58.8894 22.1019L58.2097 22.1015C55.1632 22.0991 50.1719 22.0951 48.3023 22.4437C46.49 22.7816 45.904 23.0276 45.6533 23.1358C44.587 23.5555 43.6625 24.2568 42.9709 25.148L42.3725 29.0319C42.1295 28.9945 41.8874 28.9601 41.6465 28.9286Z" fill="url(#paint9_radial_69_2408)"/>
<path fill-rule="evenodd" clip-rule="evenodd" d="M29.991 21.1449C31.4017 21.707 32.58 22.6242 33.4498 23.7897C33.7058 24.1327 34.109 24.3442 34.5363 24.3204C35.9607 24.2413 37.6395 24.2224 39.447 24.3298C39.8765 24.3553 40.2824 24.143 40.5393 23.7979C41.4097 22.6285 42.5902 21.7083 44.0042 21.1449C44.444 20.9569 45.2036 20.6756 47.0868 20.3245C48.2258 20.1122 50.9357 19.9956 52.765 19.954C54.6531 19.9112 56.6833 19.9128 58.2013 19.914L58.8894 19.9144C61.4912 19.9144 64.058 20.7364 65.0759 21.3499C67.366 22.512 69.4851 24.7337 69.6371 28.5569C69.6434 28.614 69.6475 28.6717 69.6492 28.7296C69.8296 34.6105 66.1778 43.0214 56.8676 45.3263C56.2132 45.4883 55.57 45.6061 54.9249 45.695C54.8936 45.6993 54.8621 45.703 54.8306 45.7059C45.1902 46.6093 38.9014 38.2501 38.8724 29.3576C38.8712 28.9815 38.5814 28.6641 38.2056 28.6515C37.351 28.6231 36.5401 28.6247 35.7931 28.6461C35.4157 28.6569 35.1241 28.9754 35.1231 29.3529C35.0997 38.2471 28.8042 46.6093 19.1646 45.7059C19.1331 45.703 19.1016 45.6993 19.0703 45.695C18.4252 45.6061 17.782 45.4883 17.1276 45.3263C7.81737 43.0214 4.16555 34.6105 4.34594 28.7296C4.34772 28.6717 4.35179 28.614 4.3581 28.5569C4.51007 24.7337 6.62922 22.512 8.91925 21.3499C9.93714 20.7364 12.504 19.9144 15.1058 19.9144L15.7939 19.914C17.3119 19.9128 19.3421 19.9112 21.2301 19.954C23.0595 19.9956 25.7694 20.1122 26.9084 20.3245C28.7916 20.6756 29.5512 20.9569 29.991 21.1449ZM7.44558 26.6107C7.99222 25.2793 9.00687 24.1913 10.3729 23.368C11.1409 22.9051 12.9963 22.1019 15.1058 22.1019L15.7855 22.1015C18.8319 22.0991 23.8233 22.0951 25.6929 22.4437C27.5052 22.7816 28.0912 23.0276 28.3418 23.1358C29.3689 23.54 30.2644 24.2055 30.9469 25.0503L31.6944 29.0197C31.8727 28.9861 32.0922 28.9504 32.3485 28.9147C32.3491 28.9508 32.3494 28.987 32.3494 29.0233L32.3491 29.0915C32.7421 38.303 25.7271 43.8548 19.1646 43.2396C18.5845 43.1597 18.0181 43.0554 17.4491 42.9145C10.536 41.203 7.63359 35.7566 7.08143 30.9367C6.9964 30.1944 6.9671 29.467 6.98748 28.7704L6.98806 28.7508L6.99247 28.751L6.99329 28.7296C7.02373 27.9671 7.179 27.26 7.44558 26.6107ZM41.6465 28.9286C41.646 28.9601 41.6458 28.9917 41.6458 29.0233L41.6461 29.0915C41.2531 38.303 48.2681 43.8548 54.8306 43.2396C55.4107 43.1597 55.9771 43.0554 56.5461 42.9145C63.4592 41.203 66.3616 35.7566 66.9138 30.9367C66.9988 30.1944 67.0281 29.467 67.0077 28.7704L67.0071 28.7508L67.0027 28.751L67.0019 28.7296C66.9715 27.9671 66.8162 27.26 66.5496 26.6107C66.003 25.2793 64.9883 24.1913 63.6223 23.368C62.8543 22.9051 60.9989 22.1019 58.8894 22.1019L58.2097 22.1015C55.1632 22.0991 50.1719 22.0951 48.3023 22.4437C46.49 22.7816 45.904 23.0276 45.6533 23.1358C44.587 23.5555 43.6625 24.2568 42.9709 25.148L42.3725 29.0319C42.1295 28.9945 41.8874 28.9601 41.6465 28.9286Z" fill="url(#paint10_radial_69_2408)"/>
<path fill-rule="evenodd" clip-rule="evenodd" d="M29.991 21.1449C31.4017 21.707 32.58 22.6242 33.4498 23.7897C33.7058 24.1327 34.109 24.3442 34.5363 24.3204C35.9607 24.2413 37.6395 24.2224 39.447 24.3298C39.8765 24.3553 40.2824 24.143 40.5393 23.7979C41.4097 22.6285 42.5902 21.7083 44.0042 21.1449C44.444 20.9569 45.2036 20.6756 47.0868 20.3245C48.2258 20.1122 50.9357 19.9956 52.765 19.954C54.6531 19.9112 56.6833 19.9128 58.2013 19.914L58.8894 19.9144C61.4912 19.9144 64.058 20.7364 65.0759 21.3499C67.366 22.512 69.4851 24.7337 69.6371 28.5569C69.6434 28.614 69.6475 28.6717 69.6492 28.7296C69.8296 34.6105 66.1778 43.0214 56.8676 45.3263C56.2132 45.4883 55.57 45.6061 54.9249 45.695C54.8936 45.6993 54.8621 45.703 54.8306 45.7059C45.1902 46.6093 38.9014 38.2501 38.8724 29.3576C38.8712 28.9815 38.5814 28.6641 38.2056 28.6515C37.351 28.6231 36.5401 28.6247 35.7931 28.6461C35.4157 28.6569 35.1241 28.9754 35.1231 29.3529C35.0997 38.2471 28.8042 46.6093 19.1646 45.7059C19.1331 45.703 19.1016 45.6993 19.0703 45.695C18.4252 45.6061 17.782 45.4883 17.1276 45.3263C7.81737 43.0214 4.16555 34.6105 4.34594 28.7296C4.34772 28.6717 4.35179 28.614 4.3581 28.5569C4.51007 24.7337 6.62922 22.512 8.91925 21.3499C9.93714 20.7364 12.504 19.9144 15.1058 19.9144L15.7939 19.914C17.3119 19.9128 19.3421 19.9112 21.2301 19.954C23.0595 19.9956 25.7694 20.1122 26.9084 20.3245C28.7916 20.6756 29.5512 20.9569 29.991 21.1449ZM7.44558 26.6107C7.99222 25.2793 9.00687 24.1913 10.3729 23.368C11.1409 22.9051 12.9963 22.1019 15.1058 22.1019L15.7855 22.1015C18.8319 22.0991 23.8233 22.0951 25.6929 22.4437C27.5052 22.7816 28.0912 23.0276 28.3418 23.1358C29.3689 23.54 30.2644 24.2055 30.9469 25.0503L31.6944 29.0197C31.8727 28.9861 32.0922 28.9504 32.3485 28.9147C32.3491 28.9508 32.3494 28.987 32.3494 29.0233L32.3491 29.0915C32.7421 38.303 25.7271 43.8548 19.1646 43.2396C18.5845 43.1597 18.0181 43.0554 17.4491 42.9145C10.536 41.203 7.63359 35.7566 7.08143 30.9367C6.9964 30.1944 6.9671 29.467 6.98748 28.7704L6.98806 28.7508L6.99247 28.751L6.99329 28.7296C7.02373 27.9671 7.179 27.26 7.44558 26.6107ZM41.6465 28.9286C41.646 28.9601 41.6458 28.9917 41.6458 29.0233L41.6461 29.0915C41.2531 38.303 48.2681 43.8548 54.8306 43.2396C55.4107 43.1597 55.9771 43.0554 56.5461 42.9145C63.4592 41.203 66.3616 35.7566 66.9138 30.9367C66.9988 30.1944 67.0281 29.467 67.0077 28.7704L67.0071 28.7508L67.0027 28.751L67.0019 28.7296C66.9715 27.9671 66.8162 27.26 66.5496 26.6107C66.003 25.2793 64.9883 24.1913 63.6223 23.368C62.8543 22.9051 60.9989 22.1019 58.8894 22.1019L58.2097 22.1015C55.1632 22.0991 50.1719 22.0951 48.3023 22.4437C46.49 22.7816 45.904 23.0276 45.6533 23.1358C44.587 23.5555 43.6625 24.2568 42.9709 25.148L42.3725 29.0319C42.1295 28.9945 41.8874 28.9601 41.6465 28.9286Z" fill="url(#paint11_radial_69_2408)"/>
<path d="M10.373 23.368C11.1411 22.9051 12.9965 22.1019 15.106 22.1019C15.3189 22.1019 15.5463 22.1017 15.7857 22.1015C18.8321 22.0991 23.8234 22.0951 25.6931 22.4437C27.5054 22.7816 28.0914 23.0276 28.342 23.1358C30.6893 24.0596 32.3496 26.3481 32.3496 29.0233L32.3492 29.0915C32.7423 38.303 25.7273 43.8548 19.1648 43.2396C18.5846 43.1597 18.0183 43.0554 17.4493 42.9145C9.46107 40.9369 6.82807 33.9724 6.98828 28.7498L6.99265 28.751C7.07869 26.4145 8.33472 24.5966 10.373 23.368Z" fill="url(#paint12_radial_69_2408)"/>
<path d="M10.373 23.368C11.1411 22.9051 12.9965 22.1019 15.106 22.1019C15.3189 22.1019 15.5463 22.1017 15.7857 22.1015C18.8321 22.0991 23.8234 22.0951 25.6931 22.4437C27.5054 22.7816 28.0914 23.0276 28.342 23.1358C30.6893 24.0596 32.3496 26.3481 32.3496 29.0233L32.3492 29.0915C32.7423 38.303 25.7273 43.8548 19.1648 43.2396C18.5846 43.1597 18.0183 43.0554 17.4493 42.9145C9.46107 40.9369 6.82807 33.9724 6.98828 28.7498L6.99265 28.751C7.07869 26.4145 8.33472 24.5966 10.373 23.368Z" fill="url(#paint13_radial_69_2408)"/>
<path d="M10.373 23.368C11.1411 22.9051 12.9965 22.1019 15.106 22.1019C15.3189 22.1019 15.5463 22.1017 15.7857 22.1015C18.8321 22.0991 23.8234 22.0951 25.6931 22.4437C27.5054 22.7816 28.0914 23.0276 28.342 23.1358C30.6893 24.0596 32.3496 26.3481 32.3496 29.0233L32.3492 29.0915C32.7423 38.303 25.7273 43.8548 19.1648 43.2396C18.5846 43.1597 18.0183 43.0554 17.4493 42.9145C9.46107 40.9369 6.82807 33.9724 6.98828 28.7498L6.99265 28.751C7.07869 26.4145 8.33472 24.5966 10.373 23.368Z" fill="url(#paint14_radial_69_2408)"/>
<path d="M10.373 23.368C11.1411 22.9051 12.9965 22.1019 15.106 22.1019C15.3189 22.1019 15.5463 22.1017 15.7857 22.1015C18.8321 22.0991 23.8234 22.0951 25.6931 22.4437C27.5054 22.7816 28.0914 23.0276 28.342 23.1358C30.6893 24.0596 32.3496 26.3481 32.3496 29.0233L32.3492 29.0915C32.7423 38.303 25.7273 43.8548 19.1648 43.2396C18.5846 43.1597 18.0183 43.0554 17.4493 42.9145C9.46107 40.9369 6.82807 33.9724 6.98828 28.7498L6.99265 28.751C7.07869 26.4145 8.33472 24.5966 10.373 23.368Z" fill="url(#paint15_radial_69_2408)"/>
<ellipse cx="26.3647" cy="28.7499" rx="3.26853" ry="4.11054" transform="rotate(-25.8832 26.3647 28.7499)" fill="url(#paint16_linear_69_2408)"/>
<path d="M63.6223 23.368C62.8542 22.9051 60.9989 22.1019 58.8894 22.1019C58.6765 22.1019 58.4491 22.1017 58.2097 22.1015C55.1632 22.0991 50.1719 22.0951 48.3022 22.4437C46.49 22.7816 45.904 23.0276 45.6533 23.1358C43.3061 24.0596 41.6458 26.3481 41.6458 29.0233L41.6461 29.0915C41.253 38.303 48.2681 43.8548 54.8306 43.2396C55.4107 43.1597 55.9771 43.0554 56.5461 42.9145C64.5343 40.9369 67.1673 33.9724 67.0071 28.7498L67.0027 28.751C66.9167 26.4145 65.6606 24.5966 63.6223 23.368Z" fill="url(#paint17_radial_69_2408)"/>
<path d="M63.6223 23.368C62.8542 22.9051 60.9989 22.1019 58.8894 22.1019C58.6765 22.1019 58.4491 22.1017 58.2097 22.1015C55.1632 22.0991 50.1719 22.0951 48.3022 22.4437C46.49 22.7816 45.904 23.0276 45.6533 23.1358C43.3061 24.0596 41.6458 26.3481 41.6458 29.0233L41.6461 29.0915C41.253 38.303 48.2681 43.8548 54.8306 43.2396C55.4107 43.1597 55.9771 43.0554 56.5461 42.9145C64.5343 40.9369 67.1673 33.9724 67.0071 28.7498L67.0027 28.751C66.9167 26.4145 65.6606 24.5966 63.6223 23.368Z" fill="url(#paint18_radial_69_2408)"/>
<path d="M63.6223 23.368C62.8542 22.9051 60.9989 22.1019 58.8894 22.1019C58.6765 22.1019 58.4491 22.1017 58.2097 22.1015C55.1632 22.0991 50.1719 22.0951 48.3022 22.4437C46.49 22.7816 45.904 23.0276 45.6533 23.1358C43.3061 24.0596 41.6458 26.3481 41.6458 29.0233L41.6461 29.0915C41.253 38.303 48.2681 43.8548 54.8306 43.2396C55.4107 43.1597 55.9771 43.0554 56.5461 42.9145C64.5343 40.9369 67.1673 33.9724 67.0071 28.7498L67.0027 28.751C66.9167 26.4145 65.6606 24.5966 63.6223 23.368Z" fill="url(#paint19_radial_69_2408)"/>
<path d="M63.6223 23.368C62.8542 22.9051 60.9989 22.1019 58.8894 22.1019C58.6765 22.1019 58.4491 22.1017 58.2097 22.1015C55.1632 22.0991 50.1719 22.0951 48.3022 22.4437C46.49 22.7816 45.904 23.0276 45.6533 23.1358C43.3061 24.0596 41.6458 26.3481 41.6458 29.0233L41.6461 29.0915C41.253 38.303 48.2681 43.8548 54.8306 43.2396C55.4107 43.1597 55.9771 43.0554 56.5461 42.9145C64.5343 40.9369 67.1673 33.9724 67.0071 28.7498L67.0027 28.751C66.9167 26.4145 65.6606 24.5966 63.6223 23.368Z" fill="url(#paint20_radial_69_2408)"/>
<ellipse cx="61.4394" cy="28.7499" rx="3.26853" ry="4.11054" transform="rotate(-25.8832 61.4394 28.7499)" fill="url(#paint21_linear_69_2408)"/>
<path d="M26.7778 50.3125C26.7778 50.3125 29.8438 54.6875 36.9976 54.6875C44.1514 54.6875 47.2173 50.3125 47.2173 50.3125" stroke="url(#paint22_radial_69_2408)" stroke-width="2.3" stroke-linecap="round" stroke-linejoin="round"/>
<defs>
<filter id="filter0_d_69_2408" x="-3.75" y="-2.875" width="81.5" height="81.5" filterUnits="userSpaceOnUse" color-interpolation-filters="sRGB">
<feFlood flood-opacity="0" result="BackgroundImageFix"/>
<feColorMatrix in="SourceAlpha" type="matrix" values="0 0 0 0 0 0 0 0 0 0 0 0 0 0 0 0 0 0 127 0" result="hardAlpha"/>
<feOffset dy="2.875"/>
<feGaussianBlur stdDeviation="2.875"/>
<feComposite in2="hardAlpha" operator="out"/>
<feColorMatrix type="matrix" values="0 0 0 0 0 0 0 0 0 0 0 0 0 0 0 0 0 0 0.25 0"/>
<feBlend mode="normal" in2="BackgroundImageFix" result="effect1_dropShadow_69_2408"/>
<feBlend mode="normal" in="SourceGraphic" in2="effect1_dropShadow_69_2408" result="shape"/>
</filter>
<filter id="filter1_f_69_2408" x="8.38196" y="20.7211" width="60.012" height="28.6194" filterUnits="userSpaceOnUse" color-interpolation-filters="sRGB">
<feFlood flood-opacity="0" result="BackgroundImageFix"/>
<feBlend mode="normal" in="SourceGraphic" in2="BackgroundImageFix" result="shape"/>
<feGaussianBlur stdDeviation="0.69" result="effect1_foregroundBlur_69_2408"/>
</filter>
<radialGradient id="paint0_radial_69_2408" cx="0" cy="0" r="1" gradientUnits="userSpaceOnUse" gradientTransform="translate(57.7812 19.6875) rotate(132.839) scale(82.0385)">
<stop stop-color="#FFF478"/>
<stop offset="0.474827" stop-color="#FFB02E"/>
<stop offset="1" stop-color="#F70A8D"/>
</radialGradient>
<radialGradient id="paint1_radial_69_2408" cx="0" cy="0" r="1" gradientUnits="userSpaceOnUse" gradientTransform="translate(57.7812 19.6875) rotate(131.878) scale(85.2002)">
<stop stop-color="#FFF478"/>
<stop offset="0.474827" stop-color="#FFB02E"/>
<stop offset="1" stop-color="#F70A8D"/>
</radialGradient>
<radialGradient id="paint2_radial_69_2408" cx="0" cy="0" r="1" gradientUnits="userSpaceOnUse" gradientTransform="translate(37 27.3437) rotate(101.31) scale(39.0394 50.002)">
<stop offset="0.787821" stop-color="#F59639" stop-opacity="0"/>
<stop offset="0.972509" stop-color="#FF7DCE"/>
</radialGradient>
<radialGradient id="paint3_radial_69_2408" cx="0" cy="0" r="1" gradientUnits="userSpaceOnUse" gradientTransform="translate(41.375 30.625) rotate(135) scale(89.7142)">
<stop offset="0.314853" stop-opacity="0"/>
<stop offset="1"/>
</radialGradient>
<radialGradient id="paint4_radial_69_2408" cx="0" cy="0" r="1" gradientUnits="userSpaceOnUse" gradientTransform="translate(37 37.1875) rotate(77.692) scale(61.5714)">
<stop offset="0.507903" stop-color="#7D6133" stop-opacity="0"/>
<stop offset="1" stop-color="#715B32"/>
</radialGradient>
<radialGradient id="paint5_radial_69_2408" cx="0" cy="0" r="1" gradientUnits="userSpaceOnUse" gradientTransform="translate(38.0937 36.0937) rotate(55.7131) scale(29.1233 21.1101)">
<stop stop-color="#FFB849"/>
<stop offset="1" stop-color="#FFB847" stop-opacity="0"/>
</radialGradient>
<radialGradient id="paint6_radial_69_2408" cx="0" cy="0" r="1" gradientUnits="userSpaceOnUse" gradientTransform="translate(46.8437 39.375) rotate(9.86581) scale(25.5338)">
<stop stop-color="#FFA64B"/>
<stop offset="0.900412" stop-color="#FFAE46" stop-opacity="0"/>
</radialGradient>
<radialGradient id="paint7_radial_69_2408" cx="0" cy="0" r="1" gradientUnits="userSpaceOnUse" gradientTransform="translate(40.2812 32.8125) rotate(43.9708) scale(129.178)">
<stop offset="0.185425" stop-opacity="0"/>
<stop offset="1" stop-opacity="0.4"/>
</radialGradient>
<linearGradient id="paint8_linear_69_2408" x1="51.6264" y1="35.0308" x2="20.8647" y2="46.7625" gradientUnits="userSpaceOnUse">
<stop stop-color="#E78F00"/>
<stop offset="1" stop-color="#D07000"/>
</linearGradient>
<radialGradient id="paint9_radial_69_2408" cx="0" cy="0" r="1" gradientUnits="userSpaceOnUse" gradientTransform="translate(48.2083 21.3328) rotate(78.8614) scale(26.8933 55.7293)">
<stop stop-color="#5F5B9B"/>
<stop offset="1" stop-color="#5C3085"/>
</radialGradient>
<radialGradient id="paint10_radial_69_2408" cx="0" cy="0" r="1" gradientUnits="userSpaceOnUse" gradientTransform="translate(54.2583 32.8417) rotate(78.0636) scale(12.0625 13.5511)">
<stop offset="0.776042" stop-color="#77579C"/>
<stop offset="0.9375" stop-color="#77579C" stop-opacity="0"/>
</radialGradient>
<radialGradient id="paint11_radial_69_2408" cx="0" cy="0" r="1" gradientUnits="userSpaceOnUse" gradientTransform="translate(49.8489 30.6297) rotate(-122.735) scale(10.2395 7.51639)">
<stop offset="0.769354" stop-color="#4E3D92"/>
<stop offset="1" stop-color="#534687" stop-opacity="0"/>
</radialGradient>
<radialGradient id="paint12_radial_69_2408" cx="0" cy="0" r="1" gradientUnits="userSpaceOnUse" gradientTransform="translate(25.3767 28.5789) rotate(121.845) scale(12.956 14.7183)">
<stop stop-color="#4C3D70"/>
<stop offset="1" stop-color="#361C5D"/>
</radialGradient>
<radialGradient id="paint13_radial_69_2408" cx="0" cy="0" r="1" gradientUnits="userSpaceOnUse" gradientTransform="translate(22.7109 28.9207) rotate(87.1376) scale(16.4267 24.3927)">
<stop offset="0.647365" stop-color="#5B2B84" stop-opacity="0"/>
<stop offset="1" stop-color="#5B2B84"/>
</radialGradient>
<radialGradient id="paint14_radial_69_2408" cx="0" cy="0" r="1" gradientUnits="userSpaceOnUse" gradientTransform="translate(19.0195 45.4637) rotate(-99.5134) scale(25.2298 24.9847)">
<stop offset="0.858612" stop-color="#2E1D57" stop-opacity="0"/>
<stop offset="1" stop-color="#20143D"/>
</radialGradient>
<radialGradient id="paint15_radial_69_2408" cx="0" cy="0" r="1" gradientUnits="userSpaceOnUse" gradientTransform="translate(21.1387 27.2801) rotate(102.225) scale(16.7869 15.7548)">
<stop offset="0.872281" stop-color="#2E1D57" stop-opacity="0"/>
<stop offset="1" stop-color="#20143D" stop-opacity="0.6"/>
</radialGradient>
<linearGradient id="paint16_linear_69_2408" x1="27.7949" y1="25.8023" x2="24.7465" y2="32.7192" gradientUnits="userSpaceOnUse">
<stop stop-color="white"/>
<stop offset="0.973958" stop-color="white" stop-opacity="0"/>
</linearGradient>
<radialGradient id="paint17_radial_69_2408" cx="0" cy="0" r="1" gradientUnits="userSpaceOnUse" gradientTransform="translate(55.9331 27.6903) rotate(121.289) scale(14.4788 21.7484)">
<stop stop-color="#4C3D70"/>
<stop offset="1" stop-color="#361C5D"/>
</radialGradient>
<radialGradient id="paint18_radial_69_2408" cx="0" cy="0" r="1" gradientUnits="userSpaceOnUse" gradientTransform="translate(51.2844 28.9207) rotate(92.8624) scale(16.4267 24.3927)">
<stop offset="0.647365" stop-color="#5B2B84" stop-opacity="0"/>
<stop offset="1" stop-color="#5B2B84"/>
</radialGradient>
<radialGradient id="paint19_radial_69_2408" cx="0" cy="0" r="1" gradientUnits="userSpaceOnUse" gradientTransform="translate(54.3221 42.5242) rotate(-77.6023) scale(22.4673 22.249)">
<stop offset="0.858612" stop-color="#2E1D57" stop-opacity="0"/>
<stop offset="1" stop-color="#20143D"/>
</radialGradient>
<radialGradient id="paint20_radial_69_2408" cx="0" cy="0" r="1" gradientUnits="userSpaceOnUse" gradientTransform="translate(52.8567 27.2801) rotate(77.7749) scale(16.7869 15.7548)">
<stop offset="0.872281" stop-color="#2E1D57" stop-opacity="0"/>
<stop offset="1" stop-color="#20143D" stop-opacity="0.6"/>
</radialGradient>
<linearGradient id="paint21_linear_69_2408" x1="62.8696" y1="25.8023" x2="59.8212" y2="32.7192" gradientUnits="userSpaceOnUse">
<stop stop-color="white"/>
<stop offset="0.973958" stop-color="white" stop-opacity="0"/>
</linearGradient>
<radialGradient id="paint22_radial_69_2408" cx="0" cy="0" r="1" gradientUnits="userSpaceOnUse" gradientTransform="translate(36.9976 47.7197) rotate(90) scale(23.9258 36.8996)">
<stop offset="0.145833" stop-color="#2E1529"/>
<stop offset="0.276042" stop-color="#503A4A"/>
<stop offset="0.342857" stop-color="#4B2744"/>
</radialGradient>
</defs>
</svg>
